<?xml version="1.0" encoding="UTF-8" standalone="no"?><!DOCTYPE svg PUBLIC "-//W3C//DTD SVG 1.1//EN" "http://www.w3.org/Graphics/SVG/1.1/DTD/svg11.dtd"><svg width="100%" height="100%" viewBox="0 0 417 417" version="1.1" xmlns="http://www.w3.org/2000/svg" xmlns:xlink="http://www.w3.org/1999/xlink" xml:space="preserve" xmlns:serif="http://www.serif.com/" style="fill-rule:evenodd;clip-rule:evenodd;stroke-linejoin:round;stroke-miterlimit:2;"><path d="M416.667,57.793c-0,-31.897 -25.896,-57.793 -57.793,-57.793l-301.081,-0c-31.897,-0 -57.793,25.896 -57.793,57.793l-0,301.081c-0,31.897 25.896,57.793 57.793,57.793l301.081,-0c31.897,-0 57.793,-25.896 57.793,-57.793l-0,-301.081Z" style="fill:#11192d;"/><path d="M94.149,128.778c4.09,-0 7.405,3.329 7.405,7.437c0,4.107 -3.315,7.436 -7.405,7.436c-4.091,0 -7.406,-3.329 -7.406,-7.436c0,-4.108 3.315,-7.437 7.406,-7.437Zm27.598,-0l57.852,0.014c4.09,0 7.405,3.315 7.405,7.423c0,4.107 -3.315,7.436 -7.405,7.436l-57.852,0c-4.09,0 -7.405,-3.329 -7.405,-7.436c-0,-4.108 3.315,-7.437 7.405,-7.437l0,-0Zm126.266,-31.347l-162.518,0l0,0.015l-0.014,-0.015c-18.514,0 -33.454,15.075 -33.454,33.653l-0,154.499c-0,18.519 14.911,33.638 33.339,33.652l162.65,0c18.514,0 33.526,-15.06 33.526,-33.652l0,-26.245l39.841,23.088c4.464,2.58 9.444,3.877 14.424,3.877c4.98,0 9.96,-1.297 14.424,-3.877c8.912,-5.173 14.409,-14.743 14.409,-25.077l-0,-98.031c-0,-10.348 -5.411,-19.86 -14.337,-25.034l-0.072,-0.043c-4.463,-2.58 -9.443,-3.877 -14.424,-3.877l0,0.014c-0.014,-0.014 -0.014,-0.014 -0.028,-0.014c-4.966,-0 -9.903,1.283 -14.367,3.863l-39.871,23.117l0,-26.259c0,-18.592 -15.011,-33.653 -33.525,-33.653l-0.003,-0.001Z" style="fill:#818cf8;fill-rule:nonzero;"/></svg>